<svg xmlns="http://www.w3.org/2000/svg" xmlns:xlink="http://www.w3.org/1999/xlink" viewBox="0 0 1000 647.64"><defs><style>.cls-1{fill:none;}.cls-2{fill:#fff;}.cls-3{fill:#333;}.cls-4{clip-path:url(#clip-path);}.cls-5{fill:url(#linear-gradient);}.cls-6{fill:url(#linear-gradient-2);}.cls-7{fill:url(#linear-gradient-3);}.cls-8{fill:url(#linear-gradient-4);}.cls-9{fill:#e1e2e3;}.cls-10{font-size:23.28px;fill:#e6e6e6;font-family:Dubai-Bold, Dubai;font-weight:700;}.cls-11{letter-spacing:-0.01em;}.cls-12{letter-spacing:0em;}.cls-13{letter-spacing:0em;}.cls-14{letter-spacing:-0.01em;}.cls-15{letter-spacing:-0.03em;}.cls-16{letter-spacing:0em;}.cls-17{letter-spacing:-0.06em;}.cls-18{letter-spacing:-0.09em;}.cls-19{letter-spacing:-0.02em;}.cls-20{letter-spacing:-0.03em;}</style><clipPath id="clip-path"><rect class="cls-1" width="1000" height="625"/></clipPath><linearGradient id="linear-gradient" x1="191.72" y1="586.65" x2="191.72" y2="414.15" gradientUnits="userSpaceOnUse"><stop offset="0" stop-color="#696969"/><stop offset="1" stop-color="#c4c3c3"/></linearGradient><linearGradient id="linear-gradient-2" x1="171.3" y1="414.15" x2="171.3" y2="411.6" xlink:href="#linear-gradient"/><linearGradient id="linear-gradient-3" x1="509.4" y1="616.2" x2="509.4" y2="335.76" xlink:href="#linear-gradient"/><linearGradient id="linear-gradient-4" x1="499.64" y1="385.03" x2="499.64" y2="647.64" gradientUnits="userSpaceOnUse"><stop offset="0" stop-color="#e3e2e2"/><stop offset="1" stop-color="#969696"/></linearGradient></defs><g id="Layer_2" data-name="Layer 2"><g id="Bg"><rect class="cls-2" width="1000" height="625"/></g><g id="Object"><rect class="cls-3" width="1000" height="625"/><rect class="cls-1" width="1000" height="625"/><g class="cls-4"><polygon class="cls-5" points="157.51 586.65 225.94 586.65 225.94 445.48 227.89 445.48 227.89 441.44 223.64 441.44 223.64 436.27 189.97 436.27 189.97 428.43 177.11 428.43 175.19 423.3 172.01 423.3 172.01 414.15 171.3 414.15 170.59 414.15 170.59 423.3 164.69 423.3 164.69 428.43 164.69 434.33 164.69 436.27 159.81 436.27 159.81 441.44 155.56 441.44 155.56 445.48 157.51 445.48 157.51 586.65"/><path class="cls-6" d="M172.57,412.87a1.28,1.28,0,1,0-1.27,1.28A1.27,1.27,0,0,0,172.57,412.87Z"/><polygon class="cls-7" points="792.67 594.91 792.67 405.12 708.41 387.63 717.64 594.91 470.39 594.91 470.39 477.65 465.84 477.65 465.84 407.48 454.09 407.48 454.09 388.69 449.89 388.69 449.89 361.12 426.76 361.12 426.76 340.86 424.71 340.86 424.71 361.12 420.18 361.12 420.18 335.76 418.12 335.76 418.12 361.12 403.5 361.12 403.5 407.48 395.95 407.48 395.95 477.65 389.48 477.65 389.48 594.91 323.72 594.91 323.72 438.82 324.86 438.82 324.86 437.01 316.77 437.01 316.77 426.17 317.81 426.17 317.81 424.43 310.38 424.43 310.38 418.2 311.05 418.2 311.05 416.86 307.85 416.86 307.85 410.97 304.8 410.97 304.32 410.97 304.32 389.94 303.99 389.94 303.57 389.94 303.15 389.94 303.15 410.97 301.72 410.97 301.72 399.25 301.39 399.25 300.97 399.25 300.55 399.25 300.55 410.97 297.02 410.97 297.02 416.86 293.33 416.86 293.33 418.2 294.49 418.2 294.49 424.43 287.06 424.43 287.06 426.17 288.11 426.17 288.11 437.01 280.01 437.01 280.01 438.82 281.15 438.82 281.15 594.91 61.86 594.91 61.86 616.2 956.94 616.2 956.94 594.91 792.67 594.91"/><path class="cls-8" d="M940.85,614.08V594.91H913.91l-10.2-75.43h-1.53v-9.06h-5.35v9.06H895.5v-3.39h-3.75v3.39H884v-7.9h-2.15v-5.49H866.58v5.49h-2.14v7.9h-2.15v45.31H848.72v-115h-4.46V424.62h-1.43v25.21h-3.39v-35H838v35h-2.94V430.9h-1.43v18.93H807.31v81.6H778v52.86H750.68l-21.71-40a56.46,56.46,0,0,0,10.26-7.59l4.45,4.76a4.4,4.4,0,1,0,.4-.32l-4.48-4.78,1.13-1.1a56.2,56.2,0,0,0,11.19-15.93l5,2.29a4.56,4.56,0,1,0,.15-.48l-4.9-2.27a55.66,55.66,0,0,0,5-21.24l5.34.18a4.61,4.61,0,1,0,0-.51l-5.34-.17c0-.52,0-1.05,0-1.57a56.16,56.16,0,0,0-3.34-19.18l4.46-1.64a4.28,4.28,0,1,0-.18-.47l-4.46,1.64a55.81,55.81,0,0,0-11.48-18.56l3.49-3.27a4.56,4.56,0,0,0,7.7-3.3,4.56,4.56,0,1,0-8.05,2.93L741.82,457c-.36-.38-.72-.76-1.09-1.13a56.34,56.34,0,0,0-18.13-12.17l1.92-4.67a4.43,4.43,0,0,0,1.38.21,4.54,4.54,0,1,0-1.86-.39l-1.91,4.66a55.93,55.93,0,0,0-19-4.05l.2-6.39h.15a4.59,4.59,0,1,0-.65-.05l-.21,6.42c-.52,0-1.05,0-1.57,0a56.2,56.2,0,0,0-18.44,3.09l-1.83-5.22a4.54,4.54,0,1,0-1.74.35,4.73,4.73,0,0,0,1.26-.18l1.83,5.21a56,56,0,0,0-19.29,11.76l-3.33-3.56a4.42,4.42,0,1,0-.36.36l3.32,3.55c-.38.35-.76.72-1.13,1.09a56,56,0,0,0-11.19,15.93l-4.24-1.95a4.43,4.43,0,0,0,.24-1.46,4.54,4.54,0,1,0-.42,1.93l4.2,1.94a55.89,55.89,0,0,0-5,21.24l-5.43-.18a4.52,4.52,0,1,0,0,.51l5.43.18c0,.52,0,1,0,1.57a56.1,56.1,0,0,0,3.34,19.17l-4.46,1.64a4.55,4.55,0,1,0,.38,1.81,4.51,4.51,0,0,0-.2-1.33l4.45-1.64a56,56,0,0,0,11.49,18.56L656.38,537a4.5,4.5,0,1,0,.35.37l3.49-3.27c.36.38.72.75,1.09,1.12a56.58,56.58,0,0,0,11.76,9l-21.71,40H633.77V557.16H626.6V505.64h2.79v-1.12h-61.6v1.12h2.79v26h-6l-5.76,29.61V464.12h-2.53V429H543.52v-13.4h-6.8V404.31h-2.39V385h-.62v19.28h-2.39v11.24h-6.81V429H511.88v35.17h-2.62V528H489.67v56.32h-65V475.39h5.22v-1.71h-5.22v-3.07h-6.62v-5H364v5h-6.62v3.07h-5.22v1.71h5.22v67.79H348.5V530.46H293.88V546H282v28.93H262.69V480.38h-6.43V474h-5.08V457H250.1v17h-2.41V452.66h-1.07V474h-3v6.43h-1.59v94.54h-39.9V519.48H204v-3.75H191.73V505.56h-5.9v10.17h-5.35V505.56h-5.36v10.17H164.7V505.56H132.81v10.17h-7.45v3.75h4.24v20.89H117.81V587.5H101.64V574.92h-18v27.44H61.86v11.72H29.75v33.56H969.54V614.08ZM728.24,542.93l-7.52-13.86a39,39,0,0,0,6.7-5l10.77,11.5A54.75,54.75,0,0,1,728.24,542.93Zm-28.15-44.47a2.85,2.85,0,0,0,.58.12l-1.14,35.07a37.94,37.94,0,0,1-12.77-2.73ZM686.3,530.72a34.92,34.92,0,0,1-3.74-1.82l16.73-30.84a2.33,2.33,0,0,0,.34.2Zm14.87-32.12a3.19,3.19,0,0,0,.63-.1l11.66,33.1A38,38,0,0,1,701,533.68h-1Zm1.1-.27a2.27,2.27,0,0,0,.48-.27l16.73,30.84a37.5,37.5,0,0,1-5.54,2.53Zm2.82,1.92,21.81,23.28a38.2,38.2,0,0,1-6.54,4.87Zm-1-1.76-.63-1.16c.07-.09.13-.19.19-.28l31.85,14.7a38.17,38.17,0,0,1-8.27,11.43Zm-.23-1.9a3.24,3.24,0,0,0,.16-.7L739.13,497a37.59,37.59,0,0,1-3.38,14.26Zm.18-1.21a2.85,2.85,0,0,0-.11-.66L736.9,482.6a38,38,0,0,1,2.26,12.94c0,.33,0,.66,0,1Zm-.28-1.14a3.26,3.26,0,0,0-.38-.61l25.59-24a38.4,38.4,0,0,1,7.72,12.47Zm-.73-1a2.75,2.75,0,0,0-.66-.45l13.33-32.46a38.33,38.33,0,0,1,12.93,8.93Zm-1.12-.64a3.75,3.75,0,0,0-.58-.13l1.14-35.07a37.84,37.84,0,0,1,12.76,2.74Zm-1.08-.14a3.19,3.19,0,0,0-.63.09l-11.66-33.09A38,38,0,0,1,701,457.39l1,0Zm-1.1.26a2.83,2.83,0,0,0-.65.4l-24-25.6a38.22,38.22,0,0,1,13-7.89Zm-1,.74a3.09,3.09,0,0,0-.4.55L666.5,479.32a38.29,38.29,0,0,1,8.27-11.43Zm-.61,1a2.67,2.67,0,0,0-.16.69L662.91,494a37.86,37.86,0,0,1,3.37-14.26Zm-.18,1.2a2.85,2.85,0,0,0,.11.66l-32.93,12.13a37.77,37.77,0,0,1-2.26-12.94c0-.33,0-.66,0-1Zm.28,1.14a3.1,3.1,0,0,0,.29.5l-.2.38L673,521.42A38.3,38.3,0,0,1,665.31,509Zm-.68,2.29L681.68,528.4a38.26,38.26,0,0,1-8.31-6.61Zm-15.37,30.45a38.47,38.47,0,0,0,3.82,1.86L680,546a52.48,52.48,0,0,1-5.34-2.58Zm4.29,2a38.64,38.64,0,0,0,13,2.79L699,550.13a54.36,54.36,0,0,1-18.5-3.93ZM700,534.43h1a38.67,38.67,0,0,0,12.69-2.13L719,547.17a54.72,54.72,0,0,1-17.93,3l-1.52,0Zm14.18-2.29a37.91,37.91,0,0,0,5.65-2.57l7.52,13.86a54.83,54.83,0,0,1-7.93,3.58Zm25.46,2-1.09,1.06-10.77-11.49a39.28,39.28,0,0,0,8.44-11.67l14.31,6.61A54.71,54.71,0,0,1,739.65,534.17Zm11.1-15.95-14.31-6.61a38.55,38.55,0,0,0,3.45-14.56l15.73.51A54.45,54.45,0,0,1,750.75,518.22Zm4.9-22.68c0,.51,0,1,0,1.52l-15.72-.51c0-.34,0-.68,0-1a38.58,38.58,0,0,0-2.31-13.21l14.79-5.44A54.6,54.6,0,0,1,755.65,495.54Zm-14.59-37.18a54.52,54.52,0,0,1,11.17,18.05l-14.79,5.45a39.24,39.24,0,0,0-7.87-12.73Zm-1.41-1.46c.36.36.71.73,1.06,1.1l-11.49,10.76A39,39,0,0,0,716,459.65l6-14.58A54.7,54.7,0,0,1,739.65,456.9Zm-36.6-16a54.42,54.42,0,0,1,18.5,3.94l-6,14.58a38.7,38.7,0,0,0-13-2.8Zm-2,0,1.52,0L702,456.65l-1,0a38.67,38.67,0,0,0-12.69,2.13l-5.24-14.86A54.72,54.72,0,0,1,701,440.9Zm-18.41,3.17,5.24,14.86A39,39,0,0,0,674.62,467L663.85,455.5A54.24,54.24,0,0,1,682.61,444.07ZM662.39,456.9l1.09-1.06,10.77,11.5A38.93,38.93,0,0,0,665.81,479l-14.31-6.6A54.62,54.62,0,0,1,662.39,456.9Zm-11.11,16,14.31,6.6A38.78,38.78,0,0,0,662.15,494l-15.73-.51A54.35,54.35,0,0,1,651.28,472.86Zm-4.89,22.68c0-.51,0-1,0-1.53l15.72.52c0,.33,0,.67,0,1a38.76,38.76,0,0,0,2.3,13.2l-14.78,5.44A54.5,54.5,0,0,1,646.39,495.54ZM661,532.71a54.42,54.42,0,0,1-11.17-18.05l14.79-5.44a39.09,39.09,0,0,0,7.87,12.72Zm1.41,1.46c-.36-.36-.72-.73-1.06-1.09l11.49-10.77a38.87,38.87,0,0,0,8.49,6.76l-7.52,13.86A55.06,55.06,0,0,1,662.39,534.17ZM674,544.76a54.32,54.32,0,0,0,5.49,2.65l-1.92,4.67a4.8,4.8,0,0,0-1.38-.21,4.54,4.54,0,1,0,1.86.39l1.91-4.66a55.93,55.93,0,0,0,19,4l-.15,4.78a4.59,4.59,0,1,0,.5,0l.16-4.78,1.57,0a56.45,56.45,0,0,0,18.44-3.08l1.63,4.64a4.56,4.56,0,1,0,1.94-.43,4.72,4.72,0,0,0-1.47.24l-1.63-4.62a54.79,54.79,0,0,0,8.16-3.68l21.44,39.53h-97Z"/><path class="cls-9" d="M833.94,473.87a1.09,1.09,0,1,0-1.07,1.27A1.18,1.18,0,0,0,833.94,473.87Z"/><polygon class="cls-9" points="950.47 628.66 943.83 584.29 930.26 584.29 930.26 547.46 931.94 547.46 931.94 544.13 925.35 544.13 925.35 529.79 924.55 529.79 924.55 544.13 920 544.13 920 532.38 919.19 532.38 919.19 544.13 891.75 544.13 891.75 547.46 893.63 547.46 893.63 622.18 862.29 622.18 862.29 588.71 844.45 588.71 844.45 506.47 846.08 506.47 846.08 502.44 842.52 502.44 842.52 497.27 838.42 497.27 838.42 495.33 838.42 489.42 838.42 484.3 833.47 484.3 833.47 475.14 832.87 475.14 832.28 475.14 832.28 484.3 829.61 484.3 828 489.42 817.2 489.42 817.2 497.27 788.93 497.27 788.93 502.44 785.37 502.44 785.37 506.47 787 506.47 787 559.98 763.35 559.98 763.35 612.56 737.11 600.93 737.11 549.9 741.35 549.9 741.35 546.15 733.9 546.15 733.9 535.97 702.01 535.97 702.01 546.15 691.59 546.15 691.59 535.97 686.23 535.97 686.23 546.15 680.88 546.15 680.88 535.97 674.98 535.97 674.98 546.15 662.66 546.15 662.66 549.9 664.54 549.9 664.54 620.63 652.58 620.63 652.58 619.89 650.41 619.89 650.41 599.73 652.58 599.73 652.58 598.12 650.41 598.12 650.41 577.96 652.58 577.96 652.58 576.34 650.41 576.34 650.41 556.18 652.58 556.18 652.58 554.57 650.41 554.57 650.41 534.41 652.58 534.41 652.58 532.79 650.41 532.79 650.41 512.64 652.58 512.64 652.58 511.02 650.41 511.02 650.41 490.16 654.12 490.16 654.12 488.54 656.01 488.54 656.01 484.12 620.78 484.12 620.78 479.2 621.92 479.2 621.92 477.78 602.74 477.78 602.74 479.2 603.89 479.2 603.89 484.12 595.16 484.12 595.16 488.54 597.05 488.54 597.05 490.16 600.76 490.16 600.76 511.02 598.59 511.02 598.59 512.64 600.76 512.64 600.76 532.79 598.59 532.79 598.59 534.41 600.76 534.41 600.76 554.57 598.59 554.57 598.59 556.18 600.76 556.18 600.76 576.34 598.59 576.34 598.59 577.96 600.76 577.96 600.76 598.12 598.59 598.12 598.59 599.73 600.76 599.73 600.76 619.89 598.59 619.89 598.59 621.5 600.76 621.5 600.76 637.98 588.73 637.98 588.73 574.33 540.35 574.33 540.35 620.63 532.49 620.63 532.49 476.39 526.68 476.39 526.68 480.1 515.96 482.73 515.96 480.32 510.14 480.32 510.14 484.15 499.42 486.77 499.42 484.01 493.61 484.01 493.61 488.19 482.88 490.82 482.88 488.54 477.07 488.54 477.07 492.24 466.35 494.86 466.35 492.9 460.54 492.9 460.54 634.54 452.36 634.54 452.36 559.03 422.08 559.03 422.08 605.46 391.03 605.46 391.03 565.86 387.2 565.86 387.2 552.86 389.48 552.86 389.48 551.55 379.43 551.55 379.43 547.46 378.36 547.46 378.36 551.55 375.14 551.55 375.14 530.56 374.34 530.56 374.34 551.55 370.15 551.55 370.15 552.86 372.62 552.86 372.62 565.86 352.13 565.86 352.13 596.07 332.18 596.07 321.76 634.54 300.86 634.54 300.86 508.94 273.18 508.94 273.18 504.44 274.75 504.44 274.75 502.86 253.79 502.86 253.79 504.44 255.44 504.44 255.44 508.94 255.44 516.17 255.44 602.2 242.39 602.2 242.39 569.69 247.03 569.69 247.03 566.75 214.19 566.75 214.19 547.12 207.93 547.12 207.93 543.08 193.95 543.08 193.95 547.12 182.57 547.12 182.57 617.23 145.25 617.23 145.25 565.23 113.82 565.23 113.82 606.3 86.55 606.3 86.55 632.58 66.88 632.58 66.88 599.54 41.02 599.54 41.02 627.71 17.61 627.71 17.61 647.64 41.02 647.64 48.93 647.64 61.86 647.64 66.88 647.64 86.55 647.64 113.82 647.64 122.98 647.64 127.89 647.64 145.25 647.64 182.57 647.64 193.95 647.64 207.93 647.64 214.19 647.64 238.69 647.64 242.39 647.64 255.44 647.64 277.32 647.64 288.11 647.64 300.86 647.64 352.13 647.64 363.97 647.64 383.95 647.64 391.03 647.64 422.61 647.64 431.09 647.64 460.54 647.64 463.44 647.64 466.35 647.64 477.07 647.64 482.88 647.64 493.61 647.64 498.47 647.64 499.42 647.64 510.14 647.64 515.96 647.64 525.18 647.64 526.68 647.64 529.59 647.64 532.49 647.64 540.35 647.64 580.34 647.64 586.05 647.64 588.73 647.64 600.76 647.64 621.92 647.64 641.3 647.64 650.41 647.64 664.54 647.64 699.63 647.64 736.73 647.64 737.11 647.64 763.35 647.64 778.03 647.64 787 647.64 792.67 647.64 836.59 647.64 844.45 647.64 853.85 647.64 862.29 647.64 893.63 647.64 916.92 647.64 921.69 647.64 930.26 647.64 982.39 647.64 982.39 628.66 950.47 628.66"/></g><text class="cls-10" transform="translate(167.91 121.85)">DIN<tspan class="cls-11" x="39.13" y="0">A</tspan><tspan class="cls-12" x="54.45" y="0">S P</tspan><tspan class="cls-13" x="86.28" y="0">E</tspan><tspan class="cls-14" x="99.15" y="0">R</tspan><tspan x="112.93" y="0">UMAHAN </tspan><tspan class="cls-15" x="218.37" y="0">D</tspan><tspan x="233.48" y="0">AN P</tspan><tspan class="cls-16" x="284.37" y="0">E</tspan><tspan x="297.25" y="0">RMUKIMAN KABU</tspan><tspan class="cls-17" x="486.43" y="0">P</tspan><tspan class="cls-18" x="498.32" y="0">A</tspan><tspan x="511.76" y="0">T</tspan><tspan class="cls-13" x="525.19" y="0">E</tspan><tspan x="538.06" y="0">N </tspan><tspan class="cls-19" x="559.99" y="0">B</tspan><tspan x="573.85" y="0">AN</tspan><tspan class="cls-20" x="606.09" y="0">J</tspan><tspan x="616.59" y="0">AR</tspan></text></g></g></svg>